Patient4_TMGait_0pt8_01_left_19_GRF.mot
version=1
nRows=78
nColumns=19
inDegrees=no
endheader
time	F1x	F1y	F1z	M1x	M1y	M1z	F2x	F2y	F2z	M2x	M2y	M2z	EC1x	EC1y	EC1z	EC2x	EC2y	EC2z
20.53	-6.3335	-9.4778	-2.3592	0.87447	3.7171	-6.8879	-36.4675	720.4321	-72.1543	281.3755	102.5974	869.8403	-0.0592	0.0182	-0.0073	-0.0462	0.0165	0.9585
20.5414	-4.3065	-5.3279	-1.511	0.2036	2.371	-3.2815	-36.601	717.7281	-69.5755	279.9621	98.6215	862.362	-0.0592	0.0182	-0.0073	-0.0462	0.0165	0.9585
20.5527	-2.6046	-1.8442	-0.81506	-0.35626	1.2455	-0.27451	-35.985	716.5807	-67.2356	279.1125	94.6288	856.006	-0.0592	0.0182	-0.0073	-0.0462	0.0165	0.9585
20.5641	-1.3224	0.79867	-0.28478	-0.77844	0.38208	1.9867	-34.6012	717.5013	-65.3051	279.0636	90.8473	851.5056	-0.0592	0.0182	-0.0073	-0.0462	0.0165	0.9585
20.5754	-0.45907	2.6266	0.079692	-1.0687	-0.2208	3.5452	-32.5372	720.6643	-63.8445	279.911	87.3964	849.1609	-0.0592	0.0182	-0.0073	-0.0462	0.0165	0.9585
20.5868	0.050672	3.7605	0.30466	-1.2467	-0.60296	4.504	-29.8961	725.9339	-62.8351	281.6156	84.3039	848.8831	-0.0592	0.0182	-0.0073	-0.0462	0.0165	0.9585
20.5981	0.27105	4.3655	0.4277	-1.3382	-0.82156	5.0004	-26.7949	732.8489	-62.2092	284.0044	81.5396	850.2009	-0.0592	0.0182	-0.0073	-0.0462	0.0165	0.9585
20.6095	0.2855	4.5643	0.47713	-1.3573	-0.92714	5.1306	-23.3316	740.7147	-61.8988	286.8053	79.0558	852.3646	-0.0592	0.0182	-0.0073	-0.0462	0.0165	0.9585
20.6209	0.15079	4.4646	0.49172	-1.315	-0.98365	4.9703	-19.5743	748.6833	-61.8182	289.6814	76.7717	854.4557	-0.0592	0.0182	-0.0073	-0.0462	0.0165	0.9585
20.6322	-0.081551	4.0936	0.48739	-1.2016	-1.0266	4.5233	-15.5757	755.8563	-61.8946	292.2771	74.6097	855.5271	-0.0592	0.0182	-0.0073	-0.0462	0.0165	0.9585
20.6436	-0.37015	3.4382	0.49723	-0.99504	-1.0984	3.7536	-11.3414	761.4433	-62.0552	294.277	72.4806	854.7516	-0.0592	0.0182	-0.0073	-0.0462	0.0165	0.9585
20.6549	-0.68474	2.4523	0.52369	-0.66779	-1.2023	2.5687	-6.8845	764.8447	-62.2463	295.4413	70.3209	851.5175	-0.0592	0.0182	-0.0073	-0.0462	0.0165	0.9585
20.6663	-0.97638	1.0698	0.57049	-0.19026	-1.33	0.8642	-2.2202	765.7567	-62.4297	295.6433	68.0874	845.5522	-0.0592	0.0182	-0.0073	-0.0462	0.0165	0.9585
20.6776	-1.1808	-0.73718	0.62768	0.4507	-1.4445	-1.4184	2.5775	764.1909	-62.5844	294.8781	65.7822	836.9519	-0.0592	0.0182	-0.0073	-0.0462	0.0165	0.9585
20.689	-1.1922	-2.9321	0.6651	1.241	-1.4701	-4.2352	7.3916	760.3681	-62.7181	293.2237	63.4591	826.0582	-0.0592	0.0182	-0.0073	-0.0462	0.0165	0.9585
20.7004	-0.86122	-5.3256	0.64288	2.1086	-1.2956	-7.336	12.0495	754.6481	-62.8603	290.8089	61.2125	813.3734	-0.0592	0.0182	-0.0073	-0.0462	0.0165	0.9585
20.7117	0.0047092	-7.5141	0.48534	2.8974	-0.75393	-10.1846	16.3378	747.4185	-63.052	287.7783	59.1653	799.4175	-0.0592	0.0182	-0.0073	-0.0462	0.0165	0.9585
20.7231	1.6185	-8.7659	0.11587	3.3306	0.34082	-11.8325	20.0828	739.1176	-63.3109	284.2947	57.4086	784.7395	-0.0592	0.0182	-0.0073	-0.0462	0.0165	0.9585
20.7344	4.2055	-7.9433	-0.58338	2.9824	2.2197	-10.805	23.2038	730.1631	-63.634	280.5182	55.977	769.8173	-0.0592	0.0182	-0.0073	-0.0462	0.0165	0.9585
20.7458	7.9067	-3.4682	-1.6976	1.2692	5.0576	-5.0468	25.7281	720.8814	-64.015	276.5769	54.8594	754.9781	-0.0592	0.0182	-0.0073	-0.0462	0.0165	0.9585
20.7571	12.7154	6.6385	-3.3035	-2.5373	8.9457	8.0048	27.8057	711.4682	-64.4133	272.5574	53.9666	740.3756	-0.0592	0.0182	-0.0073	-0.0462	0.0165	0.9585
20.7685	18.3186	24.5769	-5.387	-9.2387	13.7435	31.2091	29.6332	701.9584	-64.7447	268.4915	53.1462	725.9947	-0.0592	0.0182	-0.0073	-0.0462	0.0165	0.9585
20.7799	23.9452	52.3718	-7.8174	-19.5617	18.9788	67.216	31.4396	692.1424	-64.8694	264.317	52.1853	711.5648	-0.0592	0.0182	-0.0073	-0.0462	0.0165	0.9585
20.7912	28.1531	91.1804	-10.2456	-33.9048	23.6457	117.6049	33.4187	681.4844	-64.6189	259.8427	50.8556	696.5088	-0.0592	0.0182	-0.0073	-0.0462	0.0165	0.9585
20.8026	28.7643	140.4504	-12.0232	-52.0311	26.101	181.7463	35.6756	669.1555	-63.8303	254.7625	48.9581	679.9874	-0.0592	0.0182	-0.0073	-0.0462	0.0165	0.9585
20.8139	23.9465	197.8874	-12.3122	-73.0436	24.6143	256.7894	38.1854	654.119	-62.3438	248.6901	46.3405	660.9957	-0.0592	0.0182	-0.0073	-0.0462	0.0165	0.9585
20.8253	13.9878	260.1087	-10.2839	-95.6179	18.1911	338.3707	40.8152	635.2344	-60.0253	241.2015	42.9178	638.4499	-0.0592	0.0182	-0.0073	-0.0462	0.0165	0.9585
20.8366	0.85084	322.2206	-5.1751	-117.9013	6.587	419.943	43.3651	611.3483	-56.8032	231.867	38.6921	611.2667	-0.0592	0.0182	-0.0073	-0.0462	0.0165	0.9585
20.848	-13.2276	378.3623	2.9476	-137.8131	-9.1823	493.4842	45.6158	581.4163	-52.7128	220.3018	33.7804	578.4751	-0.0592	0.0182	-0.0073	-0.0462	0.0165	0.9585
20.8594	-26.2149	425.0361	12.6911	-154.1963	-26.5489	554.0574	47.2925	544.8945	-47.826	206.3044	28.3546	539.6085	-0.0592	0.0182	-0.0073	-0.0462	0.0165	0.9585
20.8707	-37.1698	462.4158	22.4508	-167.2248	-43.0442	601.7633	48.1198	501.9615	-42.3142	189.9376	22.6856	494.8951	-0.0592	0.0182	-0.0073	-0.0462	0.0165	0.9585
20.8821	-45.8654	492.8739	30.8949	-177.8628	-56.9203	639.6489	47.805	453.608	-36.4146	171.5608	17.1065	445.3591	-0.0592	0.0182	-0.0073	-0.0462	0.0165	0.9585
20.8934	-52.4233	519.1604	37.3291	-187.1728	-67.3108	671.3237	46.147	401.4091	-30.4212	151.7549	11.9686	392.5743	-0.0592	0.0182	-0.0073	-0.0462	0.0165	0.9585
20.9048	-56.8682	543.3132	41.2769	-195.9301	-73.6988	699.4148	43.0153	347.3564	-24.6352	131.2594	7.5977	338.5086	-0.0592	0.0182	-0.0073	-0.0462	0.0165	0.9585
20.9161	-59.2509	566.4126	43.0297	-204.5074	-76.4838	725.301	38.4803	293.6408	-19.3461	110.8957	4.2435	285.2621	-0.0592	0.0182	-0.0073	-0.0462	0.0165	0.9585
20.9275	-59.626	588.9472	43.1989	-213.0234	-76.5036	749.6035	32.8284	242.4237	-14.8026	91.4741	2.0344	234.8727	-0.0592	0.0182	-0.0073	-0.0462	0.0165	0.9585
20.9389	-58.1784	611.0238	42.6098	-221.4388	-74.8879	772.5418	26.5648	195.5	-11.1246	73.6732	0.89098	188.9767	-0.0592	0.0182	-0.0073	-0.0462	0.0165	0.9585
20.9502	-55.2665	632.5745	42.1056	-229.6489	-72.8143	794.1175	20.2682	154.0443	-8.3258	57.9409	0.60086	148.6088	-0.0592	0.0182	-0.0073	-0.0462	0.0165	0.9585
20.9616	-51.3163	653.2991	42.2312	-237.489	-71.1326	814.09	14.4736	118.506	-6.2716	44.4618	0.8331	114.1023	-0.0592	0.0182	-0.0073	-0.0462	0.0165	0.9585
20.9729	-46.7948	672.8807	43.3705	-244.8091	-70.4482	832.2055	9.4947	88.7919	-4.7836	33.2091	1.2926	85.3183	-0.0592	0.0182	-0.0073	-0.0462	0.0165	0.9585
20.9843	-42.0597	691.1473	45.3458	-251.5458	-70.6922	848.3462	5.4859	64.4117	-3.6812	24.005	1.7451	61.7525	-0.0592	0.0182	-0.0073	-0.0462	0.0165	0.9585
20.9956	-37.3443	708.1022	47.8335	-257.7023	-71.5483	862.6605	2.4261	44.7744	-2.8248	16.6212	2.0639	42.8421	-0.0592	0.0182	-0.0073	-0.0462	0.0165	0.9585
21.007	-32.7909	723.6469	50.3059	-263.2614	-72.4551	875.1289	0.25327	29.2894	-2.1233	10.8272	2.1917	27.9915	-0.0592	0.0182	-0.0073	-0.0462	0.0165	0.9585
21.0184	-28.5441	737.4601	52.4094	-268.1141	-73.0318	885.5031	-1.1522	17.4835	-1.5341	6.4317	2.1314	16.744	-0.0592	0.0182	-0.0073	-0.0462	0.0165	0.9585
21.0297	-24.6744	749.0367	53.9916	-272.0754	-73.1116	893.2853	-1.87	8.9721	-1.0567	3.2785	1.916	8.7018	-0.0592	0.0182	-0.0073	-0.0462	0.0165	0.9585
21.0411	-21.2892	757.8195	55.1224	-274.9311	-72.7866	897.9274	-2.0788	3.362	-0.69889	1.2094	1.623	3.4643	-0.0592	0.0182	-0.0073	-0.0462	0.0165	0.9585
21.0524	-18.3683	763.3787	56.0402	-276.51	-72.3057	898.9986	-1.9748	0.095961	-0.45199	0.012919	1.3218	0.46903	-0.0592	0.0182	-0.0073	-0.0462	0.0165	0.9585
21.0638	-15.9076	765.6041	56.8905	-276.764	-71.8331	896.4308	-1.7157	-1.4492	-0.30656	-0.54617	1.0633	-0.8864	-0.0592	0.0182	-0.0073	-0.0462	0.0165	0.9585
21.0751	-13.8388	764.8308	57.7759	-275.8207	-71.4671	890.6413	-1.3963	-1.8625	-0.2237	-0.68687	0.85164	-1.1735	-0.0592	0.0182	-0.0073	-0.0462	0.0165	0.9585
21.0865	-12.0714	761.8341	58.5999	-273.9807	-71.0938	882.5321	-1.0828	-1.6107	-0.18642	-0.58407	0.69462	-0.84394	-0.0592	0.0182	-0.0073	-0.0462	0.0165	0.9585
21.0979	-10.4777	757.5336	59.2687	-271.6056	-70.5895	873.1076	-0.80639	-1.0485	-0.1724	-0.36767	0.58401	-0.25043	-0.0592	0.0182	-0.0073	-0.0462	0.0165	0.9585
21.1092	-8.9596	752.741	59.7541	-269.0134	-69.904	863.2496	-0.58221	-0.40564	-0.17012	-0.12343	0.51579	0.38999	-0.0592	0.0182	-0.0073	-0.0462	0.0165	0.9585
21.1206	-7.3859	747.9328	60.0858	-266.4027	-69.042	853.4344	-0.41583	0.18775	-0.1751	0.10107	0.48604	0.95542	-0.0592	0.0182	-0.0073	-0.0462	0.0165	0.9585
21.1319	-5.6904	743.3502	60.3571	-263.8764	-68.0839	843.8632	-0.30764	0.67252	-0.18029	0.28567	0.48465	1.398	-0.0592	0.0182	-0.0073	-0.0462	0.0165	0.9585
21.1433	-3.7776	739.0542	60.5875	-261.4753	-67.0304	834.5238	-0.23917	1.0392	-0.18937	0.42846	0.5056	1.7161	-0.0592	0.0182	-0.0073	-0.0462	0.0165	0.9585
21.1546	-1.6027	735.0563	60.8243	-259.2155	-65.9134	825.3982	-0.20798	1.3091	-0.19373	0.53755	0.53212	1.952	-0.0592	0.0182	-0.0073	-0.0462	0.0165	0.9585
21.166	0.86816	731.3499	61.0367	-257.108	-64.6907	816.4399	-0.19812	1.5137	-0.19863	0.6237	0.5575	2.1503	-0.0592	0.0182	-0.0073	-0.0462	0.0165	0.9585
21.1774	3.6151	727.9439	61.2315	-255.1599	-63.3779	807.6636	-0.21314	1.6789	-0.20476	0.69569	0.57658	2.3326	-0.0592	0.0182	-0.0073	-0.0462	0.0165	0.9585
21.1887	6.5748	724.8498	61.3724	-253.3797	-61.9576	799.0814	-0.255	1.8135	-0.22427	0.75501	0.60424	2.4968	-0.0592	0.0182	-0.0073	-0.0462	0.0165	0.9585
21.2001	9.7081	722.1351	61.4004	-251.7902	-60.3799	790.7867	-0.32295	1.9144	-0.25975	0.79778	0.64863	2.6396	-0.0592	0.0182	-0.0073	-0.0462	0.0165	0.9585
21.2114	13.0096	719.9327	61.2985	-250.4272	-58.6194	782.9337	-0.41597	1.932	-0.32164	0.80533	0.72627	2.6931	-0.0592	0.0182	-0.0073	-0.0462	0.0165	0.9585
21.2228	16.4889	718.4038	61.0672	-249.326	-56.6688	775.7063	-0.53783	1.8123	-0.41964	0.75308	0.85796	2.5699	-0.0592	0.0182	-0.0073	-0.0462	0.0165	0.9585
21.2341	20.1673	717.759	60.7993	-248.5283	-54.6059	769.3558	-0.68386	1.4687	-0.54936	0.60444	1.0443	2.1471	-0.0592	0.0182	-0.0073	-0.0462	0.0165	0.9585
21.2455	24.0614	718.2738	60.5513	-248.0958	-52.4851	764.1994	-0.84197	0.80054	-0.7097	0.31594	1.2828	1.295	-0.0592	0.0182	-0.0073	-0.0462	0.0165	0.9585
21.2569	28.13	720.2081	60.4453	-248.0871	-50.4407	760.5653	-0.98253	-0.28786	-0.8955	-0.15119	1.5548	-0.11355	-0.0592	0.0182	-0.0073	-0.0462	0.0165	0.9585
21.2682	32.3273	723.7807	60.5314	-248.5525	-48.5445	758.7315	-1.0634	-1.8849	-1.0884	-0.82676	1.8139	-2.1969	-0.0592	0.0182	-0.0073	-0.0462	0.0165	0.9585
21.2796	36.5529	729.1002	60.8911	-249.509	-46.9076	758.8552	-1.0234	-3.9954	-1.2497	-1.7067	1.98	-4.9623	-0.0592	0.0182	-0.0073	-0.0462	0.0165	0.9585
21.2909	40.7065	736.1444	61.5606	-250.9401	-45.5997	760.9425	-0.78495	-6.4935	-1.3132	-2.7342	1.9354	-8.2421	-0.0592	0.0182	-0.0073	-0.0462	0.0165	0.9585
21.3023	44.6848	744.6911	62.5737	-252.7704	-44.6844	764.7856	-0.25354	-9.0451	-1.1643	-3.766	1.4998	-11.5999	-0.0592	0.0182	-0.0073	-0.0462	0.0165	0.9585
21.3136	48.4035	754.2602	63.9228	-254.851	-44.1781	769.8963	0.66792	-11.0142	-0.6738	-4.5338	0.4637	-14.2147	-0.0592	0.0182	-0.0073	-0.0462	0.0165	0.9585
21.325	51.8441	764.1581	65.5401	-256.9703	-44.0189	775.5696	2.0486	-11.3799	0.33101	-4.6069	-1.4249	-14.7642	-0.0592	0.0182	-0.0073	-0.0462	0.0165	0.9585
21.3364	55.0586	773.539	67.3548	-258.8739	-44.1213	780.9145	3.912	-8.6719	2.0134	-3.3702	-4.3826	-11.3408	-0.0592	0.0182	-0.0073	-0.0462	0.0165	0.9585
21.3477	58.1786	781.5069	69.2321	-260.2976	-44.3133	784.952	6.1781	-0.94999	4.5302	-0.017592	-8.5565	-1.4274	-0.0592	0.0182	-0.0073	-0.0462	0.0165	0.9585
21.3591	61.3765	787.0499	71.0308	-260.9477	-44.4055	786.6029	8.5998	14.0431	7.9375	6.3854	-13.8918	17.901	-0.0592	0.0182	-0.0073	-0.0462	0.0165	0.9585
21.3704	64.8121	788.9653	72.5464	-260.4738	-44.1652	784.621	10.6795	38.6071	12.1126	16.7785	-19.9897	49.6393	-0.0592	0.0182	-0.0073	-0.0462	0.0165	0.9585
21.3818	68.5119	785.7427	73.5611	-258.4229	-43.3978	777.5179	11.5709	74.4951	16.618	31.8606	-25.8995	96.079	-0.0592	0.0182	-0.0073	-0.0462	0.0165	0.9585
21.3931	72.3315	775.5613	73.7737	-254.2394	-41.8973	763.5874	10.0058	122.0909	20.5643	51.7335	-29.9432	157.7366	-0.0592	0.0182	-0.0073	-0.0462	0.0165	0.9585
21.4045	75.9137	756.481	72.8455	-247.3243	-39.4942	741.0882	4.4791	179.4359	22.7344	75.5017	-29.9446	232.0985	-0.0592	0.0182	-0.0073	-0.0462	0.0165	0.9585
